#define martini_width 32
#define martini_height 32
static char martini_bits[] = {
  0x00, 0x00, 0x00, 0x03, 0x00, 0x00, 0x00, 0x02, 0x00, 0x00, 0xC0, 0x01, 
  0x00, 0x00, 0xC0, 0x03, 0x00, 0x00, 0xE0, 0x03, 0x00, 0x00, 0xC0, 0x03, 
  0x00, 0x00, 0xC0, 0x01, 0x00, 0x00, 0xF0, 0x00, 0x00, 0x00, 0x70, 0x02, 
  0x00, 0x88, 0xF2, 0x00, 0x00, 0x20, 0xFA, 0x00, 0x00, 0x48, 0x71, 0x02, 
  0x00, 0xF6, 0x77, 0x00, 0x00, 0x94, 0x3F, 0x00, 0x00, 0xA8, 0x1F, 0x00, 
  0x00, 0xD0, 0x07, 0x00, 0x00, 0x60, 0x07, 0x00, 0x00, 0x80, 0x02, 0x00, 
  0x00, 0x80, 0x01, 0x00, 0x00, 0x00, 0x00, 0x00, 0x00, 0x00, 0x00, 0x00, 
  0x00, 0x00, 0x00, 0x00, 0x00, 0x00, 0x00, 0x00, 0x00, 0x00, 0x00, 0x00, 
  0x00, 0x00, 0x00, 0x00, 0x00, 0x00, 0x00, 0x00, 0x00, 0x00, 0x00, 0x00, 
  0x00, 0x00, 0x00, 0x00, 0x00, 0x00, 0x00, 0x00, 0x00, 0x00, 0x00, 0x00, 
  0x00, 0x00, 0x00, 0x00, 0x00, 0x00, 0x00, 0x00, };
