<?xml version="1.0" encoding="UTF-8" standalone="no"?>
<!DOCTYPE svg PUBLIC "-//W3C//DTD SVG 1.1//EN"
 "http://www.w3.org/Graphics/SVG/1.1/DTD/svg11.dtd">
<!-- Generated by graphviz version 2.40.1 (20161225.0304)
 -->
<!-- Title: %3 Pages: 1 -->
<svg width="211pt" height="332pt"
 viewBox="0.00 0.00 211.30 332.00" xmlns="http://www.w3.org/2000/svg" xmlns:xlink="http://www.w3.org/1999/xlink">
<g id="graph0" class="graph" transform="scale(1 1) rotate(0) translate(4 328)">
<title>%3</title>
<polygon fill="#ffffff" stroke="transparent" points="-4,4 -4,-328 207.2967,-328 207.2967,4 -4,4"/>
<!-- inputnode (utility) -->
<g id="node1" class="node">
<title>inputnode (utility)</title>
<ellipse fill="none" stroke="#000000" cx="88.4501" cy="-306" rx="74.9117" ry="18"/>
<text text-anchor="middle" x="88.4501" y="-301.8" font-family="Times,serif" font-size="14.00" fill="#000000">inputnode (utility)</text>
</g>
<!-- bold_rpt (registration) -->
<g id="node2" class="node">
<title>bold_rpt (registration)</title>
<ellipse fill="none" stroke="#000000" cx="88.4501" cy="-90" rx="88.4002" ry="18"/>
<text text-anchor="middle" x="88.4501" y="-85.8" font-family="Times,serif" font-size="14.00" fill="#000000">bold_rpt (registration)</text>
</g>
<!-- inputnode (utility)&#45;&gt;bold_rpt (registration) -->
<g id="edge1" class="edge">
<title>inputnode (utility)&#45;&gt;bold_rpt (registration)</title>
<path fill="none" stroke="#000000" d="M76.2684,-287.882C70.2186,-277.7891 63.5523,-264.7221 60.4501,-252 49.0788,-205.3664 49.0788,-190.6336 60.4501,-144 62.704,-134.7566 66.8394,-125.3312 71.2528,-116.9966"/>
<polygon fill="#000000" stroke="#000000" points="74.3972,-118.5463 76.2684,-108.118 68.3025,-115.1033 74.3972,-118.5463"/>
</g>
<!-- map_seg (fixes) -->
<g id="node3" class="node">
<title>map_seg (fixes)</title>
<ellipse fill="none" stroke="#000000" cx="135.4501" cy="-234" rx="66.2004" ry="18"/>
<text text-anchor="middle" x="135.4501" y="-229.8" font-family="Times,serif" font-size="14.00" fill="#000000">map_seg (fixes)</text>
</g>
<!-- inputnode (utility)&#45;&gt;map_seg (fixes) -->
<g id="edge2" class="edge">
<title>inputnode (utility)&#45;&gt;map_seg (fixes)</title>
<path fill="none" stroke="#000000" d="M100.0681,-288.2022C105.5477,-279.8079 112.197,-269.6218 118.2456,-260.3558"/>
<polygon fill="#000000" stroke="#000000" points="121.2674,-262.1295 123.8029,-251.8425 115.4058,-258.3032 121.2674,-262.1295"/>
</g>
<!-- ds_report_sdc (bids) -->
<g id="node4" class="node">
<title>ds_report_sdc (bids)</title>
<ellipse fill="none" stroke="#000000" cx="88.4501" cy="-18" rx="82.6204" ry="18"/>
<text text-anchor="middle" x="88.4501" y="-13.8" font-family="Times,serif" font-size="14.00" fill="#000000">ds_report_sdc (bids)</text>
</g>
<!-- bold_rpt (registration)&#45;&gt;ds_report_sdc (bids) -->
<g id="edge3" class="edge">
<title>bold_rpt (registration)&#45;&gt;ds_report_sdc (bids)</title>
<path fill="none" stroke="#000000" d="M88.4501,-71.8314C88.4501,-64.131 88.4501,-54.9743 88.4501,-46.4166"/>
<polygon fill="#000000" stroke="#000000" points="91.9502,-46.4132 88.4501,-36.4133 84.9502,-46.4133 91.9502,-46.4132"/>
</g>
<!-- sel_wm (utility) -->
<g id="node5" class="node">
<title>sel_wm (utility)</title>
<ellipse fill="none" stroke="#000000" cx="136.4501" cy="-162" rx="66.6936" ry="18"/>
<text text-anchor="middle" x="136.4501" y="-157.8" font-family="Times,serif" font-size="14.00" fill="#000000">sel_wm (utility)</text>
</g>
<!-- map_seg (fixes)&#45;&gt;sel_wm (utility) -->
<g id="edge4" class="edge">
<title>map_seg (fixes)&#45;&gt;sel_wm (utility)</title>
<path fill="none" stroke="#000000" d="M135.7024,-215.8314C135.8094,-208.131 135.9366,-198.9743 136.0554,-190.4166"/>
<polygon fill="#000000" stroke="#000000" points="139.555,-190.4609 136.1943,-180.4133 132.5557,-190.3637 139.555,-190.4609"/>
</g>
<!-- sel_wm (utility)&#45;&gt;bold_rpt (registration) -->
<g id="edge5" class="edge">
<title>sel_wm (utility)&#45;&gt;bold_rpt (registration)</title>
<path fill="none" stroke="#000000" d="M124.5849,-144.2022C118.9887,-135.8079 112.1979,-125.6218 106.0207,-116.3558"/>
<polygon fill="#000000" stroke="#000000" points="108.8043,-114.2216 100.3451,-107.8425 102.98,-118.1045 108.8043,-114.2216"/>
</g>
</g>
</svg>
