<?xml version="1.0" encoding="UTF-8" standalone="no"?>
<!DOCTYPE svg PUBLIC "-//W3C//DTD SVG 1.1//EN"
 "http://www.w3.org/Graphics/SVG/1.1/DTD/svg11.dtd">
<!-- Generated by graphviz version 2.40.1 (20161225.0304)
 -->
<!-- Title: %3 Pages: 1 -->
<svg width="1032pt" height="764pt"
 viewBox="0.00 0.00 1031.50 764.00" xmlns="http://www.w3.org/2000/svg" xmlns:xlink="http://www.w3.org/1999/xlink">
<g id="graph0" class="graph" transform="scale(1 1) rotate(0) translate(4 760)">
<title>%3</title>
<polygon fill="#ffffff" stroke="transparent" points="-4,4 -4,-760 1027.5037,-760 1027.5037,4 -4,4"/>
<!-- inputnode (utility) -->
<g id="node1" class="node">
<title>inputnode (utility)</title>
<ellipse fill="none" stroke="#000000" cx="514" cy="-738" rx="74.9117" ry="18"/>
<text text-anchor="middle" x="514" y="-733.8" font-family="Times,serif" font-size="14.00" fill="#000000">inputnode (utility)</text>
</g>
<!-- fmap2ref_reg (registration) -->
<g id="node2" class="node">
<title>fmap2ref_reg (registration)</title>
<ellipse fill="none" stroke="#000000" cx="514" cy="-666" rx="106.7068" ry="18"/>
<text text-anchor="middle" x="514" y="-661.8" font-family="Times,serif" font-size="14.00" fill="#000000">fmap2ref_reg (registration)</text>
</g>
<!-- inputnode (utility)&#45;&gt;fmap2ref_reg (registration) -->
<g id="edge1" class="edge">
<title>inputnode (utility)&#45;&gt;fmap2ref_reg (registration)</title>
<path fill="none" stroke="#000000" d="M514,-719.8314C514,-712.131 514,-702.9743 514,-694.4166"/>
<polygon fill="#000000" stroke="#000000" points="517.5001,-694.4132 514,-684.4133 510.5001,-694.4133 517.5001,-694.4132"/>
</g>
<!-- fmap2ref_apply (registration) -->
<g id="node3" class="node">
<title>fmap2ref_apply (registration)</title>
<ellipse fill="none" stroke="#000000" cx="329" cy="-594" rx="114.9178" ry="18"/>
<text text-anchor="middle" x="329" y="-589.8" font-family="Times,serif" font-size="14.00" fill="#000000">fmap2ref_apply (registration)</text>
</g>
<!-- inputnode (utility)&#45;&gt;fmap2ref_apply (registration) -->
<g id="edge2" class="edge">
<title>inputnode (utility)&#45;&gt;fmap2ref_apply (registration)</title>
<path fill="none" stroke="#000000" d="M470.1391,-723.3751C447.1467,-714.3404 419.3977,-701.1693 398,-684 375.9937,-666.3423 357.0033,-640.2514 344.5481,-620.702"/>
<polygon fill="#000000" stroke="#000000" points="347.3777,-618.6234 339.1361,-611.9655 341.4269,-622.3097 347.3777,-618.6234"/>
</g>
<!-- fmap_mask2ref_apply (registration) -->
<g id="node4" class="node">
<title>fmap_mask2ref_apply (registration)</title>
<ellipse fill="none" stroke="#000000" cx="566" cy="-522" rx="138.0956" ry="18"/>
<text text-anchor="middle" x="566" y="-517.8" font-family="Times,serif" font-size="14.00" fill="#000000">fmap_mask2ref_apply (registration)</text>
</g>
<!-- inputnode (utility)&#45;&gt;fmap_mask2ref_apply (registration) -->
<g id="edge3" class="edge">
<title>inputnode (utility)&#45;&gt;fmap_mask2ref_apply (registration)</title>
<path fill="none" stroke="#000000" d="M560.1036,-723.8092C583.037,-715.0543 610.0432,-702.0058 630,-684 657.6735,-659.0318 663.0875,-647.9302 673,-612 677.2552,-596.5762 681.3863,-589.6261 673,-576 664.0197,-561.4088 649.7469,-550.6174 634.5151,-542.6909"/>
<polygon fill="#000000" stroke="#000000" points="635.9985,-539.5207 625.4688,-538.348 632.969,-545.8312 635.9985,-539.5207"/>
</g>
<!-- get_ees (utility) -->
<g id="node5" class="node">
<title>get_ees (utility)</title>
<ellipse fill="none" stroke="#000000" cx="196" cy="-666" rx="65.7073" ry="18"/>
<text text-anchor="middle" x="196" y="-661.8" font-family="Times,serif" font-size="14.00" fill="#000000">get_ees (utility)</text>
</g>
<!-- inputnode (utility)&#45;&gt;get_ees (utility) -->
<g id="edge4" class="edge">
<title>inputnode (utility)&#45;&gt;get_ees (utility)</title>
<path fill="none" stroke="#000000" d="M459.3339,-725.6228C402.93,-712.8521 315.1642,-692.9806 256.6548,-679.7332"/>
<polygon fill="#000000" stroke="#000000" points="257.3318,-676.2979 246.8057,-677.5032 255.7859,-683.1251 257.3318,-676.2979"/>
</g>
<!-- gen_vsm (fsl) -->
<g id="node6" class="node">
<title>gen_vsm (fsl)</title>
<ellipse fill="none" stroke="#000000" cx="352" cy="-450" rx="58.9668" ry="18"/>
<text text-anchor="middle" x="352" y="-445.8" font-family="Times,serif" font-size="14.00" fill="#000000">gen_vsm (fsl)</text>
</g>
<!-- inputnode (utility)&#45;&gt;gen_vsm (fsl) -->
<g id="edge5" class="edge">
<title>inputnode (utility)&#45;&gt;gen_vsm (fsl)</title>
<path fill="none" stroke="#000000" d="M443.2018,-732.2425C336.8328,-723.003 145.5588,-703.8761 121,-684 57.2217,-632.3824 27.9369,-567.4152 80,-504 105.259,-473.2334 211.383,-459.6825 283.3601,-453.9438"/>
<polygon fill="#000000" stroke="#000000" points="284.0138,-457.4041 293.7182,-453.1526 283.4806,-450.4244 284.0138,-457.4041"/>
</g>
<!-- vsm2dfm (itk) -->
<g id="node7" class="node">
<title>vsm2dfm (itk)</title>
<ellipse fill="none" stroke="#000000" cx="383" cy="-306" rx="60.9049" ry="18"/>
<text text-anchor="middle" x="383" y="-301.8" font-family="Times,serif" font-size="14.00" fill="#000000">vsm2dfm (itk)</text>
</g>
<!-- inputnode (utility)&#45;&gt;vsm2dfm (itk) -->
<g id="edge6" class="edge">
<title>inputnode (utility)&#45;&gt;vsm2dfm (itk)</title>
<path fill="none" stroke="#000000" d="M440.1275,-734.9152C333.5394,-729.4353 142.7327,-715.4728 82,-684 33.9552,-659.1023 0,-648.1128 0,-594 0,-594 0,-594 0,-450 0,-382.5769 210.5819,-335.9679 319.4527,-316.3763"/>
<polygon fill="#000000" stroke="#000000" points="320.108,-319.8148 329.3422,-314.6207 318.8844,-312.9226 320.108,-319.8148"/>
</g>
<!-- unwarp_reference (registration) -->
<g id="node8" class="node">
<title>unwarp_reference (registration)</title>
<ellipse fill="none" stroke="#000000" cx="729" cy="-234" rx="122.1169" ry="18"/>
<text text-anchor="middle" x="729" y="-229.8" font-family="Times,serif" font-size="14.00" fill="#000000">unwarp_reference (registration)</text>
</g>
<!-- inputnode (utility)&#45;&gt;unwarp_reference (registration) -->
<g id="edge7" class="edge">
<title>inputnode (utility)&#45;&gt;unwarp_reference (registration)</title>
<path fill="none" stroke="#000000" d="M574.345,-727.2023C603.0166,-719.3938 635.9677,-706.1669 659,-684 737.4952,-608.4543 732,-558.9433 732,-450 732,-450 732,-450 732,-378 732,-337.8673 730.8208,-291.4566 729.9411,-262.414"/>
<polygon fill="#000000" stroke="#000000" points="733.4321,-262.0687 729.6216,-252.1828 726.4355,-262.2872 733.4321,-262.0687"/>
</g>
<!-- fieldmap_fov_mask (images) -->
<g id="node9" class="node">
<title>fieldmap_fov_mask (images)</title>
<ellipse fill="none" stroke="#000000" cx="910" cy="-666" rx="113.5074" ry="18"/>
<text text-anchor="middle" x="910" y="-661.8" font-family="Times,serif" font-size="14.00" fill="#000000">fieldmap_fov_mask (images)</text>
</g>
<!-- inputnode (utility)&#45;&gt;fieldmap_fov_mask (images) -->
<g id="edge8" class="edge">
<title>inputnode (utility)&#45;&gt;fieldmap_fov_mask (images)</title>
<path fill="none" stroke="#000000" d="M573.714,-727.1429C640.6082,-714.9803 749.564,-695.1702 825.2536,-681.4084"/>
<polygon fill="#000000" stroke="#000000" points="826.0279,-684.8251 835.2405,-679.5926 824.7757,-677.938 826.0279,-684.8251"/>
</g>
<!-- fmap_fov2ref_apply (registration) -->
<g id="node10" class="node">
<title>fmap_fov2ref_apply (registration)</title>
<ellipse fill="none" stroke="#000000" cx="889" cy="-594" rx="131.3383" ry="18"/>
<text text-anchor="middle" x="889" y="-589.8" font-family="Times,serif" font-size="14.00" fill="#000000">fmap_fov2ref_apply (registration)</text>
</g>
<!-- inputnode (utility)&#45;&gt;fmap_fov2ref_apply (registration) -->
<g id="edge9" class="edge">
<title>inputnode (utility)&#45;&gt;fmap_fov2ref_apply (registration)</title>
<path fill="none" stroke="#000000" d="M582.0054,-730.4933C629.3568,-723.2828 692.9188,-709.5512 744,-684 766.2914,-672.8497 766.3164,-661.9076 787,-648 804.4161,-636.2895 824.6557,-625.1219 842.4929,-616.0133"/>
<polygon fill="#000000" stroke="#000000" points="844.213,-619.066 851.5739,-611.4459 841.0676,-612.8125 844.213,-619.066"/>
</g>
<!-- fmap2ref_reg (registration)&#45;&gt;fmap2ref_apply (registration) -->
<g id="edge10" class="edge">
<title>fmap2ref_reg (registration)&#45;&gt;fmap2ref_apply (registration)</title>
<path fill="none" stroke="#000000" d="M471.5573,-649.4817C444.8173,-639.0748 410.0909,-625.5597 381.6072,-614.4741"/>
<polygon fill="#000000" stroke="#000000" points="382.7959,-611.1811 372.2073,-610.8158 380.257,-617.7045 382.7959,-611.1811"/>
</g>
<!-- fmap2ref_reg (registration)&#45;&gt;fmap_mask2ref_apply (registration) -->
<g id="edge11" class="edge">
<title>fmap2ref_reg (registration)&#45;&gt;fmap_mask2ref_apply (registration)</title>
<path fill="none" stroke="#000000" d="M502.1565,-647.9133C491.4633,-629.117 479.0891,-599.2529 491,-576 497.4748,-563.3597 508.4385,-553.0047 520.0129,-544.8658"/>
<polygon fill="#000000" stroke="#000000" points="522.0326,-547.7271 528.4933,-539.3301 518.2063,-541.8654 522.0326,-547.7271"/>
</g>
<!-- fmap2ref_reg (registration)&#45;&gt;fmap_fov2ref_apply (registration) -->
<g id="edge13" class="edge">
<title>fmap2ref_reg (registration)&#45;&gt;fmap_fov2ref_apply (registration)</title>
<path fill="none" stroke="#000000" d="M584.5346,-652.4574C646.3879,-640.5815 736.5159,-623.2769 802.6652,-610.5763"/>
<polygon fill="#000000" stroke="#000000" points="803.4952,-613.9809 812.6559,-608.6581 802.1753,-607.1065 803.4952,-613.9809"/>
</g>
<!-- ds_report_reg (bids) -->
<g id="node11" class="node">
<title>ds_report_reg (bids)</title>
<ellipse fill="none" stroke="#000000" cx="582" cy="-594" rx="82.1273" ry="18"/>
<text text-anchor="middle" x="582" y="-589.8" font-family="Times,serif" font-size="14.00" fill="#000000">ds_report_reg (bids)</text>
</g>
<!-- fmap2ref_reg (registration)&#45;&gt;ds_report_reg (bids) -->
<g id="edge12" class="edge">
<title>fmap2ref_reg (registration)&#45;&gt;ds_report_reg (bids)</title>
<path fill="none" stroke="#000000" d="M530.809,-648.2022C539.0639,-639.4617 549.1535,-628.7786 558.1864,-619.2144"/>
<polygon fill="#000000" stroke="#000000" points="560.827,-621.5159 565.1487,-611.8425 555.7379,-616.7095 560.827,-621.5159"/>
</g>
<!-- ds_report_vsm (bids) -->
<g id="node12" class="node">
<title>ds_report_vsm (bids)</title>
<ellipse fill="none" stroke="#000000" cx="190" cy="-522" rx="85.5276" ry="18"/>
<text text-anchor="middle" x="190" y="-517.8" font-family="Times,serif" font-size="14.00" fill="#000000">ds_report_vsm (bids)</text>
</g>
<!-- fmap2ref_apply (registration)&#45;&gt;ds_report_vsm (bids) -->
<g id="edge14" class="edge">
<title>fmap2ref_apply (registration)&#45;&gt;ds_report_vsm (bids)</title>
<path fill="none" stroke="#000000" d="M295.706,-576.7542C276.4828,-566.7969 252.1325,-554.1838 231.6494,-543.5738"/>
<polygon fill="#000000" stroke="#000000" points="233.032,-540.3483 222.5427,-538.8566 229.8124,-546.564 233.032,-540.3483"/>
</g>
<!-- torads (fmap) -->
<g id="node13" class="node">
<title>torads (fmap)</title>
<ellipse fill="none" stroke="#000000" cx="352" cy="-522" rx="57.9804" ry="18"/>
<text text-anchor="middle" x="352" y="-517.8" font-family="Times,serif" font-size="14.00" fill="#000000">torads (fmap)</text>
</g>
<!-- fmap2ref_apply (registration)&#45;&gt;torads (fmap) -->
<g id="edge15" class="edge">
<title>fmap2ref_apply (registration)&#45;&gt;torads (fmap)</title>
<path fill="none" stroke="#000000" d="M334.8039,-575.8314C337.3565,-567.8406 340.41,-558.2819 343.2308,-549.4514"/>
<polygon fill="#000000" stroke="#000000" points="346.5687,-550.5043 346.2777,-539.9134 339.9006,-548.3741 346.5687,-550.5043"/>
</g>
<!-- fmap_mask2ref_apply (registration)&#45;&gt;gen_vsm (fsl) -->
<g id="edge16" class="edge">
<title>fmap_mask2ref_apply (registration)&#45;&gt;gen_vsm (fsl)</title>
<path fill="none" stroke="#000000" d="M516.0966,-505.2101C481.6991,-493.6371 436.1683,-478.3183 401.7944,-466.7532"/>
<polygon fill="#000000" stroke="#000000" points="402.5566,-463.317 391.9625,-463.4453 400.3244,-469.9515 402.5566,-463.317"/>
</g>
<!-- enhance_and_skullstrip_bold_wf -->
<g id="node14" class="node">
<title>enhance_and_skullstrip_bold_wf</title>
<ellipse fill="none" stroke="#000000" cx="573" cy="-90" rx="127.5059" ry="18"/>
<text text-anchor="middle" x="573" y="-85.8" font-family="Times,serif" font-size="14.00" fill="#000000">enhance_and_skullstrip_bold_wf</text>
</g>
<!-- fmap_mask2ref_apply (registration)&#45;&gt;enhance_and_skullstrip_bold_wf -->
<g id="edge17" class="edge">
<title>fmap_mask2ref_apply (registration)&#45;&gt;enhance_and_skullstrip_bold_wf</title>
<path fill="none" stroke="#000000" d="M566.4144,-503.8157C567.0002,-476.5008 568,-423.2544 568,-378 568,-378 568,-378 568,-234 568,-193.8518 569.9653,-147.4451 571.4316,-118.4076"/>
<polygon fill="#000000" stroke="#000000" points="574.9394,-118.3468 571.964,-108.1784 567.9489,-117.9829 574.9394,-118.3468"/>
</g>
<!-- demean (images) -->
<g id="node15" class="node">
<title>demean (images)</title>
<ellipse fill="none" stroke="#000000" cx="383" cy="-378" rx="70.5099" ry="18"/>
<text text-anchor="middle" x="383" y="-373.8" font-family="Times,serif" font-size="14.00" fill="#000000">demean (images)</text>
</g>
<!-- fmap_mask2ref_apply (registration)&#45;&gt;demean (images) -->
<g id="edge18" class="edge">
<title>fmap_mask2ref_apply (registration)&#45;&gt;demean (images)</title>
<path fill="none" stroke="#000000" d="M543.1929,-504.0535C510.3732,-478.2281 449.7669,-430.5379 413.2435,-401.7982"/>
<polygon fill="#000000" stroke="#000000" points="414.9736,-398.7059 404.9505,-395.2725 410.6448,-404.207 414.9736,-398.7059"/>
</g>
<!-- get_ees (utility)&#45;&gt;gen_vsm (fsl) -->
<g id="edge19" class="edge">
<title>get_ees (utility)&#45;&gt;gen_vsm (fsl)</title>
<path fill="none" stroke="#000000" d="M171.7331,-649.2387C130.5663,-618.7917 55.2086,-553.0211 95,-504 118.4018,-475.1701 216.071,-461.1659 284.0232,-454.7927"/>
<polygon fill="#000000" stroke="#000000" points="284.5943,-458.2555 294.2391,-453.8706 283.9649,-451.2839 284.5943,-458.2555"/>
</g>
<!-- gen_vsm (fsl)&#45;&gt;demean (images) -->
<g id="edge20" class="edge">
<title>gen_vsm (fsl)&#45;&gt;demean (images)</title>
<path fill="none" stroke="#000000" d="M359.8226,-431.8314C363.3001,-423.7547 367.4672,-414.0761 371.3032,-405.1668"/>
<polygon fill="#000000" stroke="#000000" points="374.5473,-406.4824 375.2873,-395.9134 368.1179,-403.7141 374.5473,-406.4824"/>
</g>
<!-- vsm2dfm (itk)&#45;&gt;unwarp_reference (registration) -->
<g id="edge21" class="edge">
<title>vsm2dfm (itk)&#45;&gt;unwarp_reference (registration)</title>
<path fill="none" stroke="#000000" d="M432.9419,-295.6075C489.281,-283.8837 581.721,-264.6477 648.331,-250.7866"/>
<polygon fill="#000000" stroke="#000000" points="649.2995,-254.1601 658.3767,-248.6962 647.8733,-247.3069 649.2995,-254.1601"/>
</g>
<!-- outputnode (utility) -->
<g id="node16" class="node">
<title>outputnode (utility)</title>
<ellipse fill="none" stroke="#000000" cx="495" cy="-18" rx="79.2548" ry="18"/>
<text text-anchor="middle" x="495" y="-13.8" font-family="Times,serif" font-size="14.00" fill="#000000">outputnode (utility)</text>
</g>
<!-- vsm2dfm (itk)&#45;&gt;outputnode (utility) -->
<g id="edge22" class="edge">
<title>vsm2dfm (itk)&#45;&gt;outputnode (utility)</title>
<path fill="none" stroke="#000000" d="M385.649,-288.0098C392.9558,-239.8946 414.2955,-109.3703 436,-72 442.6583,-60.5358 452.5568,-50.1117 462.3524,-41.5465"/>
<polygon fill="#000000" stroke="#000000" points="464.6669,-44.1739 470.1223,-35.0915 460.1938,-38.7895 464.6669,-44.1739"/>
</g>
<!-- jac_dfm (ants) -->
<g id="node17" class="node">
<title>jac_dfm (ants)</title>
<ellipse fill="none" stroke="#000000" cx="328" cy="-162" rx="61.3549" ry="18"/>
<text text-anchor="middle" x="328" y="-157.8" font-family="Times,serif" font-size="14.00" fill="#000000">jac_dfm (ants)</text>
</g>
<!-- vsm2dfm (itk)&#45;&gt;jac_dfm (ants) -->
<g id="edge23" class="edge">
<title>vsm2dfm (itk)&#45;&gt;jac_dfm (ants)</title>
<path fill="none" stroke="#000000" d="M376.1454,-288.0535C366.7175,-263.3696 349.6605,-218.7111 338.5862,-189.7167"/>
<polygon fill="#000000" stroke="#000000" points="341.7787,-188.2657 334.941,-180.1727 335.2394,-190.7633 341.7787,-188.2657"/>
</g>
<!-- apply_fov_mask (fsl) -->
<g id="node18" class="node">
<title>apply_fov_mask (fsl)</title>
<ellipse fill="none" stroke="#000000" cx="729" cy="-162" rx="85.9948" ry="18"/>
<text text-anchor="middle" x="729" y="-157.8" font-family="Times,serif" font-size="14.00" fill="#000000">apply_fov_mask (fsl)</text>
</g>
<!-- unwarp_reference (registration)&#45;&gt;apply_fov_mask (fsl) -->
<g id="edge24" class="edge">
<title>unwarp_reference (registration)&#45;&gt;apply_fov_mask (fsl)</title>
<path fill="none" stroke="#000000" d="M729,-215.8314C729,-208.131 729,-198.9743 729,-190.4166"/>
<polygon fill="#000000" stroke="#000000" points="732.5001,-190.4132 729,-180.4133 725.5001,-190.4133 732.5001,-190.4132"/>
</g>
<!-- fieldmap_fov_mask (images)&#45;&gt;fmap_fov2ref_apply (registration) -->
<g id="edge25" class="edge">
<title>fieldmap_fov_mask (images)&#45;&gt;fmap_fov2ref_apply (registration)</title>
<path fill="none" stroke="#000000" d="M904.7008,-647.8314C902.4302,-640.0463 899.7254,-630.7729 897.206,-622.1347"/>
<polygon fill="#000000" stroke="#000000" points="900.5306,-621.0332 894.3705,-612.4133 893.8106,-622.9933 900.5306,-621.0332"/>
</g>
<!-- fmap_fov2ref_apply (registration)&#45;&gt;apply_fov_mask (fsl) -->
<g id="edge26" class="edge">
<title>fmap_fov2ref_apply (registration)&#45;&gt;apply_fov_mask (fsl)</title>
<path fill="none" stroke="#000000" d="M888.3784,-575.8172C887.4997,-548.504 886,-495.2598 886,-450 886,-450 886,-450 886,-306 886,-264.3643 887.7817,-247.0114 860,-216 844.1289,-198.2838 821.5587,-186.2469 799.614,-178.1265"/>
<polygon fill="#000000" stroke="#000000" points="800.5313,-174.7403 789.9365,-174.7731 798.2393,-181.3544 800.5313,-174.7403"/>
</g>
<!-- torads (fmap)&#45;&gt;gen_vsm (fsl) -->
<g id="edge27" class="edge">
<title>torads (fmap)&#45;&gt;gen_vsm (fsl)</title>
<path fill="none" stroke="#000000" d="M352,-503.8314C352,-496.131 352,-486.9743 352,-478.4166"/>
<polygon fill="#000000" stroke="#000000" points="355.5001,-478.4132 352,-468.4133 348.5001,-478.4133 355.5001,-478.4132"/>
</g>
<!-- enhance_and_skullstrip_bold_wf&#45;&gt;outputnode (utility) -->
<g id="edge28" class="edge">
<title>enhance_and_skullstrip_bold_wf&#45;&gt;outputnode (utility)</title>
<path fill="none" stroke="#000000" d="M553.7191,-72.2022C543.9901,-63.2217 532.0394,-52.1902 521.4646,-42.4289"/>
<polygon fill="#000000" stroke="#000000" points="523.7812,-39.804 514.0591,-35.593 519.0332,-44.9477 523.7812,-39.804"/>
</g>
<!-- demean (images)&#45;&gt;vsm2dfm (itk) -->
<g id="edge29" class="edge">
<title>demean (images)&#45;&gt;vsm2dfm (itk)</title>
<path fill="none" stroke="#000000" d="M383,-359.8314C383,-352.131 383,-342.9743 383,-334.4166"/>
<polygon fill="#000000" stroke="#000000" points="386.5001,-334.4132 383,-324.4133 379.5001,-334.4133 386.5001,-334.4132"/>
</g>
<!-- jac_dfm (ants)&#45;&gt;outputnode (utility) -->
<g id="edge30" class="edge">
<title>jac_dfm (ants)&#45;&gt;outputnode (utility)</title>
<path fill="none" stroke="#000000" d="M339.9911,-144.1969C353.6478,-124.8204 377.4061,-93.7073 403,-72 417.6407,-59.5826 435.5085,-48.3677 451.5898,-39.4173"/>
<polygon fill="#000000" stroke="#000000" points="453.6904,-42.2598 460.8138,-34.4172 450.3544,-36.1058 453.6904,-42.2598"/>
</g>
<!-- apply_fov_mask (fsl)&#45;&gt;enhance_and_skullstrip_bold_wf -->
<g id="edge31" class="edge">
<title>apply_fov_mask (fsl)&#45;&gt;enhance_and_skullstrip_bold_wf</title>
<path fill="none" stroke="#000000" d="M693.2104,-145.4817C671.372,-135.4024 643.2162,-122.4075 619.6441,-111.5281"/>
<polygon fill="#000000" stroke="#000000" points="621.0712,-108.3319 610.5248,-107.3192 618.1377,-114.6877 621.0712,-108.3319"/>
</g>
<!-- apply_fov_mask (fsl)&#45;&gt;outputnode (utility) -->
<g id="edge32" class="edge">
<title>apply_fov_mask (fsl)&#45;&gt;outputnode (utility)</title>
<path fill="none" stroke="#000000" d="M730.414,-143.8964C730.9459,-123.6586 728.4959,-91.2128 710,-72 691.0368,-52.3019 626.8878,-37.8343 573.5556,-28.8595"/>
<polygon fill="#000000" stroke="#000000" points="573.8285,-25.3575 563.3938,-27.1927 572.6954,-32.2652 573.8285,-25.3575"/>
</g>
</g>
</svg>
