<?xml version="1.0" encoding="UTF-8" standalone="no"?>
<!DOCTYPE svg PUBLIC "-//W3C//DTD SVG 1.1//EN"
 "http://www.w3.org/Graphics/SVG/1.1/DTD/svg11.dtd">
<!-- Generated by graphviz version 2.40.1 (20161225.0304)
 -->
<!-- Title: %3 Pages: 1 -->
<svg width="453pt" height="548pt"
 viewBox="0.00 0.00 452.70 548.00" xmlns="http://www.w3.org/2000/svg" xmlns:xlink="http://www.w3.org/1999/xlink">
<g id="graph0" class="graph" transform="scale(1 1) rotate(0) translate(4 544)">
<title>%3</title>
<polygon fill="#ffffff" stroke="transparent" points="-4,4 -4,-544 448.6985,-544 448.6985,4 -4,4"/>
<!-- inputnode (utility) -->
<g id="node1" class="node">
<title>inputnode (utility)</title>
<ellipse fill="none" stroke="#000000" cx="246.9837" cy="-522" rx="74.9117" ry="18"/>
<text text-anchor="middle" x="246.9837" y="-517.8" font-family="Times,serif" font-size="14.00" fill="#000000">inputnode (utility)</text>
</g>
<!-- prepare_epi_opposite_wf -->
<g id="node2" class="node">
<title>prepare_epi_opposite_wf</title>
<ellipse fill="none" stroke="#000000" cx="99.9837" cy="-450" rx="99.9675" ry="18"/>
<text text-anchor="middle" x="99.9837" y="-445.8" font-family="Times,serif" font-size="14.00" fill="#000000">prepare_epi_opposite_wf</text>
</g>
<!-- inputnode (utility)&#45;&gt;prepare_epi_opposite_wf -->
<g id="edge1" class="edge">
<title>inputnode (utility)&#45;&gt;prepare_epi_opposite_wf</title>
<path fill="none" stroke="#000000" d="M213.9941,-505.8418C193.2368,-495.675 166.2107,-482.4377 143.6818,-471.4031"/>
<polygon fill="#000000" stroke="#000000" points="145.1743,-468.2369 134.6541,-466.9814 142.0952,-474.5234 145.1743,-468.2369"/>
</g>
<!-- qwarp (afni) -->
<g id="node3" class="node">
<title>qwarp (afni)</title>
<ellipse fill="none" stroke="#000000" cx="183.9837" cy="-378" rx="54.1129" ry="18"/>
<text text-anchor="middle" x="183.9837" y="-373.8" font-family="Times,serif" font-size="14.00" fill="#000000">qwarp (afni)</text>
</g>
<!-- inputnode (utility)&#45;&gt;qwarp (afni) -->
<g id="edge2" class="edge">
<title>inputnode (utility)&#45;&gt;qwarp (afni)</title>
<path fill="none" stroke="#000000" d="M239.5924,-503.9929C232.0623,-485.7687 219.9636,-456.8166 208.9837,-432 205.0964,-423.2138 200.7341,-413.6847 196.755,-405.1121"/>
<polygon fill="#000000" stroke="#000000" points="199.8709,-403.5126 192.471,-395.9303 193.5274,-406.4724 199.8709,-403.5126"/>
</g>
<!-- cphdr_warp (utils) -->
<g id="node4" class="node">
<title>cphdr_warp (utils)</title>
<ellipse fill="none" stroke="#000000" cx="191.9837" cy="-306" rx="75.8547" ry="18"/>
<text text-anchor="middle" x="191.9837" y="-301.8" font-family="Times,serif" font-size="14.00" fill="#000000">cphdr_warp (utils)</text>
</g>
<!-- inputnode (utility)&#45;&gt;cphdr_warp (utils) -->
<g id="edge3" class="edge">
<title>inputnode (utility)&#45;&gt;cphdr_warp (utils)</title>
<path fill="none" stroke="#000000" d="M251.3664,-503.8554C257.903,-472.9267 267.3876,-408.6271 246.9837,-360 242.1702,-348.5283 233.5992,-338.2669 224.6346,-329.8497"/>
<polygon fill="#000000" stroke="#000000" points="226.9111,-327.1909 217.0857,-323.227 222.2947,-332.4529 226.9111,-327.1909"/>
</g>
<!-- unwarp_reference (registration) -->
<g id="node5" class="node">
<title>unwarp_reference (registration)</title>
<ellipse fill="none" stroke="#000000" cx="303.9837" cy="-162" rx="122.1169" ry="18"/>
<text text-anchor="middle" x="303.9837" y="-157.8" font-family="Times,serif" font-size="14.00" fill="#000000">unwarp_reference (registration)</text>
</g>
<!-- inputnode (utility)&#45;&gt;unwarp_reference (registration) -->
<g id="edge4" class="edge">
<title>inputnode (utility)&#45;&gt;unwarp_reference (registration)</title>
<path fill="none" stroke="#000000" d="M259.3519,-503.8166C276.116,-477.3548 303.9837,-426.1283 303.9837,-378 303.9837,-378 303.9837,-378 303.9837,-306 303.9837,-265.876 303.9837,-219.4631 303.9837,-190.4177"/>
<polygon fill="#000000" stroke="#000000" points="307.4838,-190.1853 303.9837,-180.1854 300.4838,-190.1854 307.4838,-190.1853"/>
</g>
<!-- prepare_epi_opposite_wf&#45;&gt;qwarp (afni) -->
<g id="edge5" class="edge">
<title>prepare_epi_opposite_wf&#45;&gt;qwarp (afni)</title>
<path fill="none" stroke="#000000" d="M120.7478,-432.2022C131.5637,-422.9315 144.9294,-411.4751 156.5826,-401.4867"/>
<polygon fill="#000000" stroke="#000000" points="159.0095,-404.0163 164.3243,-394.851 154.4539,-398.7015 159.0095,-404.0163"/>
</g>
<!-- qwarp (afni)&#45;&gt;cphdr_warp (utils) -->
<g id="edge6" class="edge">
<title>qwarp (afni)&#45;&gt;cphdr_warp (utils)</title>
<path fill="none" stroke="#000000" d="M186.0025,-359.8314C186.8581,-352.131 187.8755,-342.9743 188.8263,-334.4166"/>
<polygon fill="#000000" stroke="#000000" points="192.312,-334.7386 189.9378,-324.4133 185.3548,-333.9656 192.312,-334.7386"/>
</g>
<!-- to_ants (utility) -->
<g id="node6" class="node">
<title>to_ants (utility)</title>
<ellipse fill="none" stroke="#000000" cx="191.9837" cy="-234" rx="64.764" ry="18"/>
<text text-anchor="middle" x="191.9837" y="-229.8" font-family="Times,serif" font-size="14.00" fill="#000000">to_ants (utility)</text>
</g>
<!-- cphdr_warp (utils)&#45;&gt;to_ants (utility) -->
<g id="edge7" class="edge">
<title>cphdr_warp (utils)&#45;&gt;to_ants (utility)</title>
<path fill="none" stroke="#000000" d="M191.9837,-287.8314C191.9837,-280.131 191.9837,-270.9743 191.9837,-262.4166"/>
<polygon fill="#000000" stroke="#000000" points="195.4838,-262.4132 191.9837,-252.4133 188.4838,-262.4133 195.4838,-262.4132"/>
</g>
<!-- outputnode (utility) -->
<g id="node7" class="node">
<title>outputnode (utility)</title>
<ellipse fill="none" stroke="#000000" cx="303.9837" cy="-18" rx="79.2548" ry="18"/>
<text text-anchor="middle" x="303.9837" y="-13.8" font-family="Times,serif" font-size="14.00" fill="#000000">outputnode (utility)</text>
</g>
<!-- unwarp_reference (registration)&#45;&gt;outputnode (utility) -->
<g id="edge9" class="edge">
<title>unwarp_reference (registration)&#45;&gt;outputnode (utility)</title>
<path fill="none" stroke="#000000" d="M381.202,-147.97C403.2198,-140.0113 424.7909,-127.5403 437.9837,-108 446.9368,-94.7394 446.9368,-85.2606 437.9837,-72 424.4137,-51.9011 401.9795,-39.2814 379.3125,-31.3584"/>
<polygon fill="#000000" stroke="#000000" points="380.2003,-27.9675 369.609,-28.2423 378.06,-34.6323 380.2003,-27.9675"/>
</g>
<!-- enhance_and_skullstrip_dwi_wf -->
<g id="node8" class="node">
<title>enhance_and_skullstrip_dwi_wf</title>
<ellipse fill="none" stroke="#000000" cx="303.9837" cy="-90" rx="125.092" ry="18"/>
<text text-anchor="middle" x="303.9837" y="-85.8" font-family="Times,serif" font-size="14.00" fill="#000000">enhance_and_skullstrip_dwi_wf</text>
</g>
<!-- unwarp_reference (registration)&#45;&gt;enhance_and_skullstrip_dwi_wf -->
<g id="edge8" class="edge">
<title>unwarp_reference (registration)&#45;&gt;enhance_and_skullstrip_dwi_wf</title>
<path fill="none" stroke="#000000" d="M303.9837,-143.8314C303.9837,-136.131 303.9837,-126.9743 303.9837,-118.4166"/>
<polygon fill="#000000" stroke="#000000" points="307.4838,-118.4132 303.9837,-108.4133 300.4838,-118.4133 307.4838,-118.4132"/>
</g>
<!-- to_ants (utility)&#45;&gt;unwarp_reference (registration) -->
<g id="edge10" class="edge">
<title>to_ants (utility)&#45;&gt;unwarp_reference (registration)</title>
<path fill="none" stroke="#000000" d="M217.9603,-217.3008C232.7908,-207.7669 251.6099,-195.6689 267.8621,-185.221"/>
<polygon fill="#000000" stroke="#000000" points="270.0663,-187.9649 276.5854,-179.6132 266.281,-182.0767 270.0663,-187.9649"/>
</g>
<!-- to_ants (utility)&#45;&gt;outputnode (utility) -->
<g id="edge11" class="edge">
<title>to_ants (utility)&#45;&gt;outputnode (utility)</title>
<path fill="none" stroke="#000000" d="M182.3337,-216.1612C166.5427,-184.2822 139.8076,-116.6948 169.9837,-72 183.5537,-51.9011 205.9879,-39.2814 228.6549,-31.3584"/>
<polygon fill="#000000" stroke="#000000" points="229.9075,-34.6323 238.3584,-28.2423 227.7671,-27.9675 229.9075,-34.6323"/>
</g>
<!-- enhance_and_skullstrip_dwi_wf&#45;&gt;outputnode (utility) -->
<g id="edge12" class="edge">
<title>enhance_and_skullstrip_dwi_wf&#45;&gt;outputnode (utility)</title>
<path fill="none" stroke="#000000" d="M303.9837,-71.8314C303.9837,-64.131 303.9837,-54.9743 303.9837,-46.4166"/>
<polygon fill="#000000" stroke="#000000" points="307.4838,-46.4132 303.9837,-36.4133 300.4838,-46.4133 307.4838,-46.4132"/>
</g>
</g>
</svg>
