<?xml version="1.0" encoding="UTF-8" standalone="no"?>
<!DOCTYPE svg PUBLIC "-//W3C//DTD SVG 1.1//EN"
 "http://www.w3.org/Graphics/SVG/1.1/DTD/svg11.dtd">
<!-- Generated by graphviz version 2.40.1 (20161225.0304)
 -->
<!-- Title: %3 Pages: 1 -->
<svg width="310pt" height="404pt"
 viewBox="0.00 0.00 309.75 404.00" xmlns="http://www.w3.org/2000/svg" xmlns:xlink="http://www.w3.org/1999/xlink">
<g id="graph0" class="graph" transform="scale(1 1) rotate(0) translate(4 400)">
<title>%3</title>
<polygon fill="#ffffff" stroke="transparent" points="-4,4 -4,-400 305.7515,-400 305.7515,4 -4,4"/>
<!-- inputnode (utility) -->
<g id="node1" class="node">
<title>inputnode (utility)</title>
<ellipse fill="none" stroke="#000000" cx="227.046" cy="-378" rx="74.9117" ry="18"/>
<text text-anchor="middle" x="227.046" y="-373.8" font-family="Times,serif" font-size="14.00" fill="#000000">inputnode (utility)</text>
</g>
<!-- split (fsl) -->
<g id="node2" class="node">
<title>split (fsl)</title>
<ellipse fill="none" stroke="#000000" cx="192.046" cy="-306" rx="42.0717" ry="18"/>
<text text-anchor="middle" x="192.046" y="-301.8" font-family="Times,serif" font-size="14.00" fill="#000000">split (fsl)</text>
</g>
<!-- inputnode (utility)&#45;&gt;split (fsl) -->
<g id="edge1" class="edge">
<title>inputnode (utility)&#45;&gt;split (fsl)</title>
<path fill="none" stroke="#000000" d="M218.214,-359.8314C214.2879,-351.7547 209.583,-342.0761 205.2521,-333.1668"/>
<polygon fill="#000000" stroke="#000000" points="208.2737,-331.3769 200.7539,-323.9134 201.9781,-334.4373 208.2737,-331.3769"/>
</g>
<!-- fmap2ref_reg (ants) -->
<g id="node3" class="node">
<title>fmap2ref_reg (ants)</title>
<ellipse fill="none" stroke="#000000" cx="201.046" cy="-90" rx="80.6478" ry="18"/>
<text text-anchor="middle" x="201.046" y="-85.8" font-family="Times,serif" font-size="14.00" fill="#000000">fmap2ref_reg (ants)</text>
</g>
<!-- inputnode (utility)&#45;&gt;fmap2ref_reg (ants) -->
<g id="edge2" class="edge">
<title>inputnode (utility)&#45;&gt;fmap2ref_reg (ants)</title>
<path fill="none" stroke="#000000" d="M235.6683,-360.1011C253.834,-319.7186 291.7757,-219.1917 259.046,-144 253.9839,-132.3707 245.0464,-122.1145 235.6809,-113.7504"/>
<polygon fill="#000000" stroke="#000000" points="237.7139,-110.8887 227.789,-107.181 233.2355,-116.2687 237.7139,-110.8887"/>
</g>
<!-- merge (freesurfer) -->
<g id="node4" class="node">
<title>merge (freesurfer)</title>
<ellipse fill="none" stroke="#000000" cx="150.046" cy="-234" rx="74.5225" ry="18"/>
<text text-anchor="middle" x="150.046" y="-229.8" font-family="Times,serif" font-size="14.00" fill="#000000">merge (freesurfer)</text>
</g>
<!-- split (fsl)&#45;&gt;merge (freesurfer) -->
<g id="edge3" class="edge">
<title>split (fsl)&#45;&gt;merge (freesurfer)</title>
<path fill="none" stroke="#000000" d="M181.6639,-288.2022C176.8177,-279.8944 170.9477,-269.8316 165.5876,-260.6427"/>
<polygon fill="#000000" stroke="#000000" points="168.5161,-258.7168 160.4541,-251.8425 162.4697,-262.2439 168.5161,-258.7168"/>
</g>
<!-- outputnode (utility) -->
<g id="node6" class="node">
<title>outputnode (utility)</title>
<ellipse fill="none" stroke="#000000" cx="201.046" cy="-18" rx="79.2548" ry="18"/>
<text text-anchor="middle" x="201.046" y="-13.8" font-family="Times,serif" font-size="14.00" fill="#000000">outputnode (utility)</text>
</g>
<!-- fmap2ref_reg (ants)&#45;&gt;outputnode (utility) -->
<g id="edge4" class="edge">
<title>fmap2ref_reg (ants)&#45;&gt;outputnode (utility)</title>
<path fill="none" stroke="#000000" d="M201.046,-71.8314C201.046,-64.131 201.046,-54.9743 201.046,-46.4166"/>
<polygon fill="#000000" stroke="#000000" points="204.5461,-46.4132 201.046,-36.4133 197.5461,-46.4133 204.5461,-46.4132"/>
</g>
<!-- enhance_and_skullstrip_dwi_wf -->
<g id="node5" class="node">
<title>enhance_and_skullstrip_dwi_wf</title>
<ellipse fill="none" stroke="#000000" cx="125.046" cy="-162" rx="125.092" ry="18"/>
<text text-anchor="middle" x="125.046" y="-157.8" font-family="Times,serif" font-size="14.00" fill="#000000">enhance_and_skullstrip_dwi_wf</text>
</g>
<!-- merge (freesurfer)&#45;&gt;enhance_and_skullstrip_dwi_wf -->
<g id="edge5" class="edge">
<title>merge (freesurfer)&#45;&gt;enhance_and_skullstrip_dwi_wf</title>
<path fill="none" stroke="#000000" d="M143.7374,-215.8314C141.0343,-208.0463 137.8143,-198.7729 134.815,-190.1347"/>
<polygon fill="#000000" stroke="#000000" points="138.026,-188.7119 131.4395,-180.4133 131.4133,-191.0081 138.026,-188.7119"/>
</g>
<!-- enhance_and_skullstrip_dwi_wf&#45;&gt;fmap2ref_reg (ants) -->
<g id="edge6" class="edge">
<title>enhance_and_skullstrip_dwi_wf&#45;&gt;fmap2ref_reg (ants)</title>
<path fill="none" stroke="#000000" d="M143.8325,-144.2022C153.22,-135.3088 164.7304,-124.4042 174.9595,-114.7135"/>
<polygon fill="#000000" stroke="#000000" points="177.6231,-117.0113 182.4756,-107.593 172.8089,-111.9297 177.6231,-117.0113"/>
</g>
</g>
</svg>
