<?xml version="1.0" encoding="UTF-8" standalone="no"?>
<!-- Created with Inkscape (http://www.inkscape.org/) -->

<svg
   xmlns:dc="http://purl.org/dc/elements/1.1/"
   xmlns:cc="http://creativecommons.org/ns#"
   xmlns:rdf="http://www.w3.org/1999/02/22-rdf-syntax-ns#"
   xmlns:svg="http://www.w3.org/2000/svg"
   xmlns="http://www.w3.org/2000/svg"
   xmlns:sodipodi="http://sodipodi.sourceforge.net/DTD/sodipodi-0.dtd"
   xmlns:inkscape="http://www.inkscape.org/namespaces/inkscape"
   id="svg3390"
   version="1.1"
   inkscape:version="0.92.3 (2405546, 2018-03-11)"
   width="428.95111"
   height="302.94608"
   viewBox="0 0 428.95111 302.94607"
   sodipodi:docname="meow.svg">
  <metadata
     id="metadata3396">
    <rdf:RDF>
      <cc:Work
         rdf:about="">
        <dc:format>image/svg+xml</dc:format>
        <dc:type
           rdf:resource="http://purl.org/dc/dcmitype/StillImage" />
        <dc:title></dc:title>
      </cc:Work>
    </rdf:RDF>
  </metadata>
  <defs
     id="defs3394" />
  <sodipodi:namedview
     pagecolor="#ffffff"
     bordercolor="#666666"
     borderopacity="1"
     objecttolerance="10"
     gridtolerance="10"
     guidetolerance="10"
     inkscape:pageopacity="0"
     inkscape:pageshadow="2"
     inkscape:window-width="1920"
     inkscape:window-height="1052"
     id="namedview3392"
     showgrid="false"
     showguides="false"
     fit-margin-top="0"
     fit-margin-left="0"
     fit-margin-right="0"
     fit-margin-bottom="0"
     inkscape:zoom="0.67421875"
     inkscape:cx="96.863046"
     inkscape:cy="89.77415"
     inkscape:window-x="3840"
     inkscape:window-y="0"
     inkscape:window-maximized="1"
     inkscape:current-layer="svg3390" />
  <path
     style="fill:#000000;fill-opacity:1;stroke:#ffffff;stroke-width:10;stroke-miterlimit:4;stroke-dasharray:none;stroke-opacity:1"
     d="m 197.19692,297.27439 c -11.64324,-1.08216 -34.83034,-5.34183 -44.83482,-8.23655 -21.39494,-6.19058 -40.34814,-16.25199 -55.883323,-29.66603 -3.08918,-2.66751 -6.83394,-4.80395 -8.42021,-4.80395 -1.57114,0 -16.46789,4.62872 -33.103905,10.28602 -16.636016,5.6573 -31.061853,10.28602 -32.057381,10.28602 -3.181161,0 -5.474702,-3.9428 -9.335479,-16.04857 -4.2258827,-13.25081 -4.5114357,-15.71231 -2.058386,-17.74338 0.939921,-0.77829 12.778346,-5.10112 26.307546,-9.6064 13.529101,-4.50526 24.785905,-8.75233 25.014945,-9.43796 0.48023,-1.43711 -18.571066,-2.82924 -38.719784,-2.82924 -12.591886,0 -13.355665,-0.14634 -16.3479587,-3.13153 -2.904224,-2.89752 -3.081468,-3.6798 -2.370791,-10.46354 0.422517,-4.03256 0.768187,-10.20824 0.768187,-13.72372 0,-10.40026 0.07615,-10.42835 27.0796407,-9.97643 l 23.099033,0.38654 1.508421,-10.3294 c 1.748792,-11.97443 5.696732,-23.04942 11.769092,-33.01507 3.21984,-5.28424 4.15605,-8.00144 3.75237,-10.89107 -5.73701,-41.06927 -6.5552,-62.12771 -3.59366,-92.48785 2.39514,-24.55421 6.16524,-30.83845 18.50083,-30.83845 12.911603,0 35.710953,16.35594 70.853703,50.82941 l 17.72433,17.38663 11.64215,-1.29508 c 14.64165,-1.62884 33.66249,-1.63373 52.17493,-0.014 l 14.35841,1.25659 20.21104,-19.19539 C 302.0594,28.49636 313.1149,19.19604 325.1451,11.98637 c 8.54164,-5.11892 11.12274,-6.07293 17.53326,-6.48016 7.04033,-0.44722 7.7492,-0.2459 11.17704,3.17391 7.02741,7.01094 10.03934,23.19586 10.06469,54.08319 0.016,18.58004 -0.30679,23.19986 -3.72471,53.41616 l -1.52506,13.48212 5.24105,8.02543 c 6.60851,10.11928 10.75052,21.43338 12.66413,34.59213 l 1.4958,10.28611 19.94231,-0.41453 c 16.02965,-0.33317 20.3983,-0.07 22.26663,1.34085 1.94657,1.4702 2.4801,4.07334 3.28365,16.01988 0.564,8.38559 0.50008,15.12095 -0.1553,16.34255 -1.30051,2.42441 -7.14843,3.58564 -18.18882,3.61203 -4.33629,0.011 -14.0485,0.37315 -21.58259,0.80627 -19.63964,1.12904 -18.39052,2.63913 10.00658,12.09668 12.64639,4.21179 23.82433,8.48675 24.83979,9.49984 1.65321,1.64933 1.63086,2.66182 -0.21341,9.67696 -2.96534,11.2796 -7.25454,21.34431 -9.74847,22.87509 -1.71743,1.05407 -8.13787,-0.71232 -31.53698,-8.67677 -16.15929,-5.50017 -30.43093,-9.99274 -31.71461,-9.98354 -1.28369,0.01 -7.28782,3.78007 -13.34254,8.37959 -23.33188,17.72409 -52.80156,28.90564 -86.26125,32.72958 -10.23432,1.16973 -37.76284,1.39923 -48.46937,0.40414 z m -42.58035,-105.4217 c 5.33423,-3.07755 8.28875,-7.8685 8.92478,-14.47201 1.01868,-10.577 -4.28851,-17.82895 -15.19122,-20.75785 -4.41174,-1.18512 -5.90774,-1.05488 -10.33912,0.90083 -13.61507,6.00846 -16.95283,21.50265 -6.81169,31.62003 6.27164,6.25695 15.43108,7.31652 23.41725,2.709 z m 139.34725,2.13643 c 8.61718,-2.38743 15.43198,-11.19974 15.43198,-19.95508 0,-4.61972 -4.8532,-12.20053 -9.4005,-14.68372 -7.33952,-4.00798 -11.26592,-4.21899 -18.26948,-0.9818 -7.77506,3.59384 -11.13386,8.62718 -11.14017,16.694 -0.01,8.6154 4.66864,15.88334 12.12568,18.84993 3.98551,1.58555 5.76256,1.59765 11.25249,0.077 z"
     id="path3428"
     inkscape:connector-curvature="0"
     inkscape:export-xdpi="90.172523"
     inkscape:export-ydpi="90.172523" />
  <path
     inkscape:connector-curvature="0"
     id="path4270"
     d="m 197.19692,297.27439 c -11.64324,-1.08216 -34.83034,-5.34183 -44.83482,-8.23655 -21.39494,-6.19058 -40.34814,-16.25199 -55.883323,-29.66603 -3.08918,-2.66751 -6.83394,-4.80395 -8.42021,-4.80395 -1.57114,0 -16.46789,4.62872 -33.103905,10.28602 -16.636016,5.6573 -31.061853,10.28602 -32.057381,10.28602 -3.181161,0 -5.474702,-3.9428 -9.335479,-16.04857 -4.2258827,-13.25081 -4.5114357,-15.71231 -2.058386,-17.74338 0.939921,-0.77829 12.778346,-5.10112 26.307546,-9.6064 13.529101,-4.50526 24.785905,-8.75233 25.014945,-9.43796 0.48023,-1.43711 -18.571066,-2.82924 -38.719784,-2.82924 -12.591886,0 -13.355665,-0.14634 -16.3479587,-3.13153 -2.904224,-2.89752 -3.081468,-3.6798 -2.370791,-10.46354 0.422517,-4.03256 0.768187,-10.20824 0.768187,-13.72372 0,-10.40026 0.07615,-10.42835 27.0796407,-9.97643 l 23.099033,0.38654 1.508421,-10.3294 c 1.748792,-11.97443 5.696732,-23.04942 11.769092,-33.01507 3.21984,-5.28424 4.15605,-8.00144 3.75237,-10.89107 -5.73701,-41.06927 -6.5552,-62.12771 -3.59366,-92.48785 2.39514,-24.55421 6.16524,-30.83845 18.50083,-30.83845 12.911603,0 35.710953,16.35594 70.853703,50.82941 l 17.72433,17.38663 11.64215,-1.29508 c 14.64165,-1.62884 33.66249,-1.63373 52.17493,-0.014 l 14.35841,1.25659 20.21104,-19.19539 C 302.0594,28.49636 313.1149,19.19604 325.1451,11.98637 c 8.54164,-5.11892 11.12274,-6.07293 17.53326,-6.48016 7.04033,-0.44722 7.7492,-0.2459 11.17704,3.17391 7.02741,7.01094 10.03934,23.19586 10.06469,54.08319 0.016,18.58004 -0.30679,23.19986 -3.72471,53.41616 l -1.52506,13.48212 5.24105,8.02543 c 6.60851,10.11928 10.75052,21.43338 12.66413,34.59213 l 1.4958,10.28611 19.94231,-0.41453 c 16.02965,-0.33317 20.3983,-0.07 22.26663,1.34085 1.94657,1.4702 2.4801,4.07334 3.28365,16.01988 0.564,8.38559 0.50008,15.12095 -0.1553,16.34255 -1.30051,2.42441 -7.14843,3.58564 -18.18882,3.61203 -4.33629,0.011 -14.0485,0.37315 -21.58259,0.80627 -19.63964,1.12904 -18.39052,2.63913 10.00658,12.09668 12.64639,4.21179 23.82433,8.48675 24.83979,9.49984 1.65321,1.64933 1.63086,2.66182 -0.21341,9.67696 -2.96534,11.2796 -7.25454,21.34431 -9.74847,22.87509 -1.71743,1.05407 -8.13787,-0.71232 -31.53698,-8.67677 -16.15929,-5.50017 -30.43093,-9.99274 -31.71461,-9.98354 -1.28369,0.01 -7.28782,3.78007 -13.34254,8.37959 -23.33188,17.72409 -52.80156,28.90564 -86.26125,32.72958 -10.23432,1.16973 -37.76284,1.39923 -48.46937,0.40414 z m -42.58035,-105.4217 c 5.33423,-3.07755 8.28875,-7.8685 8.92478,-14.47201 1.01868,-10.577 -4.28851,-17.82895 -15.19122,-20.75785 -4.41174,-1.18512 -5.90774,-1.05488 -10.33912,0.90083 -13.61507,6.00846 -16.95283,21.50265 -6.81169,31.62003 6.27164,6.25695 15.43108,7.31652 23.41725,2.709 z m 139.34725,2.13643 c 8.61718,-2.38743 15.43198,-11.19974 15.43198,-19.95508 0,-4.61972 -4.8532,-12.20053 -9.4005,-14.68372 -7.33952,-4.00798 -11.26592,-4.21899 -18.26948,-0.9818 -7.77506,3.59384 -11.13386,8.62718 -11.14017,16.694 -0.01,8.6154 4.66864,15.88334 12.12568,18.84993 3.98551,1.58555 5.76256,1.59765 11.25249,0.077 z"
     style="fill:#000000;stroke:#ffffff;stroke-width:10;stroke-miterlimit:4;stroke-dasharray:none;stroke-opacity:1"
     inkscape:export-xdpi="90.172523"
     inkscape:export-ydpi="90.172523" />
</svg>
