<?xml version="1.0" encoding="UTF-8" standalone="no"?>
<!DOCTYPE svg PUBLIC "-//W3C//DTD SVG 1.1//EN"
 "http://www.w3.org/Graphics/SVG/1.1/DTD/svg11.dtd">
<!-- Generated by graphviz version 2.40.1 (20161225.0304)
 -->
<!-- Title: %3 Pages: 1 -->
<svg width="211pt" height="188pt"
 viewBox="0.00 0.00 211.45 188.00" xmlns="http://www.w3.org/2000/svg" xmlns:xlink="http://www.w3.org/1999/xlink">
<g id="graph0" class="graph" transform="scale(1 1) rotate(0) translate(4 184)">
<title>%3</title>
<polygon fill="#ffffff" stroke="transparent" points="-4,4 -4,-184 207.4478,-184 207.4478,4 -4,4"/>
<!-- inputnode (utility) -->
<g id="node1" class="node">
<title>inputnode (utility)</title>
<ellipse fill="none" stroke="#000000" cx="101.7239" cy="-162" rx="74.9117" ry="18"/>
<text text-anchor="middle" x="101.7239" y="-157.8" font-family="Times,serif" font-size="14.00" fill="#000000">inputnode (utility)</text>
</g>
<!-- b0_to_anat (niworkflows) -->
<g id="node2" class="node">
<title>b0_to_anat (niworkflows)</title>
<ellipse fill="none" stroke="#000000" cx="101.7239" cy="-90" rx="101.9483" ry="18"/>
<text text-anchor="middle" x="101.7239" y="-85.8" font-family="Times,serif" font-size="14.00" fill="#000000">b0_to_anat (niworkflows)</text>
</g>
<!-- inputnode (utility)&#45;&gt;b0_to_anat (niworkflows) -->
<g id="edge1" class="edge">
<title>inputnode (utility)&#45;&gt;b0_to_anat (niworkflows)</title>
<path fill="none" stroke="#000000" d="M101.7239,-143.8314C101.7239,-136.131 101.7239,-126.9743 101.7239,-118.4166"/>
<polygon fill="#000000" stroke="#000000" points="105.224,-118.4132 101.7239,-108.4133 98.224,-118.4133 105.224,-118.4132"/>
</g>
<!-- outputnode (utility) -->
<g id="node3" class="node">
<title>outputnode (utility)</title>
<ellipse fill="none" stroke="#000000" cx="101.7239" cy="-18" rx="79.2548" ry="18"/>
<text text-anchor="middle" x="101.7239" y="-13.8" font-family="Times,serif" font-size="14.00" fill="#000000">outputnode (utility)</text>
</g>
<!-- b0_to_anat (niworkflows)&#45;&gt;outputnode (utility) -->
<g id="edge2" class="edge">
<title>b0_to_anat (niworkflows)&#45;&gt;outputnode (utility)</title>
<path fill="none" stroke="#000000" d="M101.7239,-71.8314C101.7239,-64.131 101.7239,-54.9743 101.7239,-46.4166"/>
<polygon fill="#000000" stroke="#000000" points="105.224,-46.4132 101.7239,-36.4133 98.224,-46.4133 105.224,-46.4132"/>
</g>
</g>
</svg>
