<?xml version="1.0" encoding="UTF-8" standalone="no"?>
<!DOCTYPE svg PUBLIC "-//W3C//DTD SVG 1.1//EN"
 "http://www.w3.org/Graphics/SVG/1.1/DTD/svg11.dtd">
<!-- Generated by graphviz version 2.40.1 (20161225.0304)
 -->
<!-- Title: %3 Pages: 1 -->
<svg width="713pt" height="404pt"
 viewBox="0.00 0.00 713.49 404.00" xmlns="http://www.w3.org/2000/svg" xmlns:xlink="http://www.w3.org/1999/xlink">
<g id="graph0" class="graph" transform="scale(1 1) rotate(0) translate(4 400)">
<title>%3</title>
<polygon fill="#ffffff" stroke="transparent" points="-4,4 -4,-400 709.4916,-400 709.4916,4 -4,4"/>
<!-- inputnode (utility) -->
<g id="node1" class="node">
<title>inputnode (utility)</title>
<ellipse fill="none" stroke="#000000" cx="533.4688" cy="-378" rx="74.9117" ry="18"/>
<text text-anchor="middle" x="533.4688" y="-373.8" font-family="Times,serif" font-size="14.00" fill="#000000">inputnode (utility)</text>
</g>
<!-- compose_transforms (gradients) -->
<g id="node2" class="node">
<title>compose_transforms (gradients)</title>
<ellipse fill="none" stroke="#000000" cx="381.4688" cy="-306" rx="124.1068" ry="18"/>
<text text-anchor="middle" x="381.4688" y="-301.8" font-family="Times,serif" font-size="14.00" fill="#000000">compose_transforms (gradients)</text>
</g>
<!-- inputnode (utility)&#45;&gt;compose_transforms (gradients) -->
<g id="edge1" class="edge">
<title>inputnode (utility)&#45;&gt;compose_transforms (gradients)</title>
<path fill="none" stroke="#000000" d="M499.357,-361.8418C478.0476,-351.7478 450.3487,-338.6273 427.1549,-327.6408"/>
<polygon fill="#000000" stroke="#000000" points="428.3889,-324.3525 417.8532,-323.2347 425.3922,-330.6787 428.3889,-324.3525"/>
</g>
<!-- mask_tfm (ants) -->
<g id="node3" class="node">
<title>mask_tfm (ants)</title>
<ellipse fill="none" stroke="#000000" cx="133.4688" cy="-306" rx="67.6455" ry="18"/>
<text text-anchor="middle" x="133.4688" y="-301.8" font-family="Times,serif" font-size="14.00" fill="#000000">mask_tfm (ants)</text>
</g>
<!-- inputnode (utility)&#45;&gt;mask_tfm (ants) -->
<g id="edge2" class="edge">
<title>inputnode (utility)&#45;&gt;mask_tfm (ants)</title>
<path fill="none" stroke="#000000" d="M470.5568,-368.2279C406.2884,-358.0314 303.6926,-341.1636 215.4688,-324 208.8362,-322.7097 201.9168,-321.2964 195.0318,-319.847"/>
<polygon fill="#000000" stroke="#000000" points="195.5169,-316.3718 185.0066,-317.7077 194.056,-323.2176 195.5169,-316.3718"/>
</g>
<!-- rotate_gradients (gradients) -->
<g id="node4" class="node">
<title>rotate_gradients (gradients)</title>
<ellipse fill="none" stroke="#000000" cx="380.4688" cy="-234" rx="107.6845" ry="18"/>
<text text-anchor="middle" x="380.4688" y="-229.8" font-family="Times,serif" font-size="14.00" fill="#000000">rotate_gradients (gradients)</text>
</g>
<!-- inputnode (utility)&#45;&gt;rotate_gradients (gradients) -->
<g id="edge3" class="edge">
<title>inputnode (utility)&#45;&gt;rotate_gradients (gradients)</title>
<path fill="none" stroke="#000000" d="M534.3913,-359.9816C534.4354,-340.1238 531.5036,-308.3114 514.4688,-288 500.2123,-271.0013 479.8101,-259.3026 459.2112,-251.2709"/>
<polygon fill="#000000" stroke="#000000" points="460.3484,-247.9602 449.7543,-247.8327 457.9566,-254.539 460.3484,-247.9602"/>
</g>
<!-- merge (nilearn) -->
<g id="node5" class="node">
<title>merge (nilearn)</title>
<ellipse fill="none" stroke="#000000" cx="590.4688" cy="-162" rx="64.9017" ry="18"/>
<text text-anchor="middle" x="590.4688" y="-157.8" font-family="Times,serif" font-size="14.00" fill="#000000">merge (nilearn)</text>
</g>
<!-- inputnode (utility)&#45;&gt;merge (nilearn) -->
<g id="edge4" class="edge">
<title>inputnode (utility)&#45;&gt;merge (nilearn)</title>
<path fill="none" stroke="#000000" d="M566.4389,-361.8078C603.065,-341.7549 660.2283,-303.7984 684.4688,-252 691.2506,-237.5084 692.4838,-229.8477 684.4688,-216 675.2478,-200.0687 659.3522,-188.4285 643.2279,-180.126"/>
<polygon fill="#000000" stroke="#000000" points="644.2899,-176.7552 633.7564,-175.6161 641.2805,-183.0753 644.2899,-176.7552"/>
</g>
<!-- dwi_transform (ants) -->
<g id="node6" class="node">
<title>dwi_transform (ants)</title>
<ellipse fill="none" stroke="#000000" cx="590.4688" cy="-234" rx="84.5412" ry="18"/>
<text text-anchor="middle" x="590.4688" y="-229.8" font-family="Times,serif" font-size="14.00" fill="#000000">dwi_transform (ants)</text>
</g>
<!-- inputnode (utility)&#45;&gt;dwi_transform (ants) -->
<g id="edge5" class="edge">
<title>inputnode (utility)&#45;&gt;dwi_transform (ants)</title>
<path fill="none" stroke="#000000" d="M540.5726,-360.0535C550.3433,-335.3696 568.0206,-290.7111 579.4976,-261.7167"/>
<polygon fill="#000000" stroke="#000000" points="582.8492,-262.759 583.2754,-252.1727 576.3406,-260.1826 582.8492,-262.759"/>
</g>
<!-- extract_b0_series (gradients) -->
<g id="node7" class="node">
<title>extract_b0_series (gradients)</title>
<ellipse fill="none" stroke="#000000" cx="590.4688" cy="-90" rx="112.5038" ry="18"/>
<text text-anchor="middle" x="590.4688" y="-85.8" font-family="Times,serif" font-size="14.00" fill="#000000">extract_b0_series (gradients)</text>
</g>
<!-- inputnode (utility)&#45;&gt;extract_b0_series (gradients) -->
<g id="edge6" class="edge">
<title>inputnode (utility)&#45;&gt;extract_b0_series (gradients)</title>
<path fill="none" stroke="#000000" d="M581.8037,-364.1073C605.8827,-355.4312 634.2959,-342.3632 655.4688,-324 683.9765,-299.2754 690.0657,-288.2736 700.4688,-252 714.4173,-203.3642 697.1421,-182.6323 664.4688,-144 654.5387,-132.2588 641.5537,-121.6837 629.2378,-113.0686"/>
<polygon fill="#000000" stroke="#000000" points="631.1132,-110.1119 620.8641,-107.4273 627.2021,-115.9174 631.1132,-110.1119"/>
</g>
<!-- local_grad_rotation (gradients) -->
<g id="node8" class="node">
<title>local_grad_rotation (gradients)</title>
<ellipse fill="none" stroke="#000000" cx="135.4688" cy="-234" rx="119.7459" ry="18"/>
<text text-anchor="middle" x="135.4688" y="-229.8" font-family="Times,serif" font-size="14.00" fill="#000000">local_grad_rotation (gradients)</text>
</g>
<!-- inputnode (utility)&#45;&gt;local_grad_rotation (gradients) -->
<g id="edge7" class="edge">
<title>inputnode (utility)&#45;&gt;local_grad_rotation (gradients)</title>
<path fill="none" stroke="#000000" d="M466.6842,-369.7716C394.7961,-360.1406 285.7375,-343.0634 248.4688,-324 227.7567,-313.4055 228.3936,-302.8302 210.4688,-288 197.6914,-277.4285 183.0057,-266.5908 170.0356,-257.4251"/>
<polygon fill="#000000" stroke="#000000" points="171.998,-254.5265 161.7975,-251.663 167.9859,-260.2627 171.998,-254.5265"/>
</g>
<!-- compose_transforms (gradients)&#45;&gt;rotate_gradients (gradients) -->
<g id="edge8" class="edge">
<title>compose_transforms (gradients)&#45;&gt;rotate_gradients (gradients)</title>
<path fill="none" stroke="#000000" d="M381.2165,-287.8314C381.1095,-280.131 380.9823,-270.9743 380.8635,-262.4166"/>
<polygon fill="#000000" stroke="#000000" points="384.3632,-262.3637 380.7245,-252.4133 377.3638,-262.4609 384.3632,-262.3637"/>
</g>
<!-- compose_transforms (gradients)&#45;&gt;dwi_transform (ants) -->
<g id="edge9" class="edge">
<title>compose_transforms (gradients)&#45;&gt;dwi_transform (ants)</title>
<path fill="none" stroke="#000000" d="M429.68,-289.3913C461.4992,-278.4297 503.2427,-264.0492 536.222,-252.6879"/>
<polygon fill="#000000" stroke="#000000" points="537.3995,-255.9842 545.7142,-249.4178 535.1195,-249.3659 537.3995,-255.9842"/>
</g>
<!-- compose_transforms (gradients)&#45;&gt;local_grad_rotation (gradients) -->
<g id="edge10" class="edge">
<title>compose_transforms (gradients)&#45;&gt;local_grad_rotation (gradients)</title>
<path fill="none" stroke="#000000" d="M326.2616,-289.8418C288.9125,-278.9104 239.4356,-264.4293 200.2256,-252.9532"/>
<polygon fill="#000000" stroke="#000000" points="201.0723,-249.5543 190.4917,-250.1043 199.1059,-256.2724 201.0723,-249.5543"/>
</g>
<!-- mask_tfm (ants)&#45;&gt;local_grad_rotation (gradients) -->
<g id="edge12" class="edge">
<title>mask_tfm (ants)&#45;&gt;local_grad_rotation (gradients)</title>
<path fill="none" stroke="#000000" d="M133.9735,-287.8314C134.1874,-280.131 134.4417,-270.9743 134.6794,-262.4166"/>
<polygon fill="#000000" stroke="#000000" points="138.1782,-262.5066 134.9573,-252.4133 131.1809,-262.3122 138.1782,-262.5066"/>
</g>
<!-- outputnode (utility) -->
<g id="node9" class="node">
<title>outputnode (utility)</title>
<ellipse fill="none" stroke="#000000" cx="380.4688" cy="-18" rx="79.2548" ry="18"/>
<text text-anchor="middle" x="380.4688" y="-13.8" font-family="Times,serif" font-size="14.00" fill="#000000">outputnode (utility)</text>
</g>
<!-- mask_tfm (ants)&#45;&gt;outputnode (utility) -->
<g id="edge11" class="edge">
<title>mask_tfm (ants)&#45;&gt;outputnode (utility)</title>
<path fill="none" stroke="#000000" d="M75.8104,-296.3029C50.0283,-288.7822 21.9996,-275.4801 6.4688,-252 -2.3581,-238.6551 -1.7526,-229.7262 6.4688,-216 72.2376,-106.1935 221.7033,-54.1416 310.4871,-32.091"/>
<polygon fill="#000000" stroke="#000000" points="311.3136,-35.4921 320.2085,-29.7362 309.6656,-28.6889 311.3136,-35.4921"/>
</g>
<!-- rotate_gradients (gradients)&#45;&gt;outputnode (utility) -->
<g id="edge13" class="edge">
<title>rotate_gradients (gradients)&#45;&gt;outputnode (utility)</title>
<path fill="none" stroke="#000000" d="M380.4688,-215.9555C380.4688,-178.3938 380.4688,-91.5541 380.4688,-46.4103"/>
<polygon fill="#000000" stroke="#000000" points="383.9689,-46.145 380.4688,-36.1451 376.9689,-46.1451 383.9689,-46.145"/>
</g>
<!-- merge (nilearn)&#45;&gt;extract_b0_series (gradients) -->
<g id="edge15" class="edge">
<title>merge (nilearn)&#45;&gt;extract_b0_series (gradients)</title>
<path fill="none" stroke="#000000" d="M590.4688,-143.8314C590.4688,-136.131 590.4688,-126.9743 590.4688,-118.4166"/>
<polygon fill="#000000" stroke="#000000" points="593.9689,-118.4132 590.4688,-108.4133 586.9689,-118.4133 593.9689,-118.4132"/>
</g>
<!-- merge (nilearn)&#45;&gt;outputnode (utility) -->
<g id="edge14" class="edge">
<title>merge (nilearn)&#45;&gt;outputnode (utility)</title>
<path fill="none" stroke="#000000" d="M548.8767,-148.1092C524.2809,-138.8244 493.2069,-125.1675 468.4688,-108 442.3916,-89.9032 417.5766,-63.3689 400.9865,-43.7975"/>
<polygon fill="#000000" stroke="#000000" points="403.4865,-41.3299 394.4002,-35.881 398.1053,-45.8069 403.4865,-41.3299"/>
</g>
<!-- dwi_transform (ants)&#45;&gt;merge (nilearn) -->
<g id="edge16" class="edge">
<title>dwi_transform (ants)&#45;&gt;merge (nilearn)</title>
<path fill="none" stroke="#000000" d="M590.4688,-215.8314C590.4688,-208.131 590.4688,-198.9743 590.4688,-190.4166"/>
<polygon fill="#000000" stroke="#000000" points="593.9689,-190.4132 590.4688,-180.4133 586.9689,-190.4133 593.9689,-190.4132"/>
</g>
<!-- extract_b0_series (gradients)&#45;&gt;outputnode (utility) -->
<g id="edge17" class="edge">
<title>extract_b0_series (gradients)&#45;&gt;outputnode (utility)</title>
<path fill="none" stroke="#000000" d="M542.8165,-73.6621C510.4351,-62.5599 467.5568,-47.8587 433.9983,-36.353"/>
<polygon fill="#000000" stroke="#000000" points="434.9464,-32.9781 424.3518,-33.0456 432.6761,-39.5997 434.9464,-32.9781"/>
</g>
<!-- local_grad_rotation (gradients)&#45;&gt;outputnode (utility) -->
<g id="edge18" class="edge">
<title>local_grad_rotation (gradients)&#45;&gt;outputnode (utility)</title>
<path fill="none" stroke="#000000" d="M155.936,-215.9555C199.8394,-177.2488 303.0966,-86.2139 352.7921,-42.4006"/>
<polygon fill="#000000" stroke="#000000" points="355.3879,-44.7782 360.5743,-35.5396 350.7586,-39.5274 355.3879,-44.7782"/>
</g>
</g>
</svg>
