<?xml version="1.0" encoding="UTF-8" standalone="no"?>
<!DOCTYPE svg PUBLIC "-//W3C//DTD SVG 1.1//EN"
 "http://www.w3.org/Graphics/SVG/1.1/DTD/svg11.dtd">
<!-- Generated by graphviz version 2.40.1 (20161225.0304)
 -->
<!-- Title: %3 Pages: 1 -->
<svg width="288pt" height="188pt"
 viewBox="0.00 0.00 288.17 188.00" xmlns="http://www.w3.org/2000/svg" xmlns:xlink="http://www.w3.org/1999/xlink">
<g id="graph0" class="graph" transform="scale(1 1) rotate(0) translate(4 184)">
<title>%3</title>
<polygon fill="#ffffff" stroke="transparent" points="-4,4 -4,-184 284.1733,-184 284.1733,4 -4,4"/>
<!-- inputnode (utility) -->
<g id="node1" class="node">
<title>inputnode (utility)</title>
<ellipse fill="none" stroke="#000000" cx="201.046" cy="-162" rx="74.9117" ry="18"/>
<text text-anchor="middle" x="201.046" y="-157.8" font-family="Times,serif" font-size="14.00" fill="#000000">inputnode (utility)</text>
</g>
<!-- enhance_and_skullstrip_dwi_wf -->
<g id="node2" class="node">
<title>enhance_and_skullstrip_dwi_wf</title>
<ellipse fill="none" stroke="#000000" cx="125.046" cy="-90" rx="125.092" ry="18"/>
<text text-anchor="middle" x="125.046" y="-85.8" font-family="Times,serif" font-size="14.00" fill="#000000">enhance_and_skullstrip_dwi_wf</text>
</g>
<!-- inputnode (utility)&#45;&gt;enhance_and_skullstrip_dwi_wf -->
<g id="edge1" class="edge">
<title>inputnode (utility)&#45;&gt;enhance_and_skullstrip_dwi_wf</title>
<path fill="none" stroke="#000000" d="M182.2595,-144.2022C172.942,-135.3752 161.5332,-124.5669 151.3617,-114.9307"/>
<polygon fill="#000000" stroke="#000000" points="153.5464,-112.1792 143.8798,-107.8425 148.7322,-117.2609 153.5464,-112.1792"/>
</g>
<!-- outputnode (utility) -->
<g id="node3" class="node">
<title>outputnode (utility)</title>
<ellipse fill="none" stroke="#000000" cx="201.046" cy="-18" rx="79.2548" ry="18"/>
<text text-anchor="middle" x="201.046" y="-13.8" font-family="Times,serif" font-size="14.00" fill="#000000">outputnode (utility)</text>
</g>
<!-- inputnode (utility)&#45;&gt;outputnode (utility) -->
<g id="edge2" class="edge">
<title>inputnode (utility)&#45;&gt;outputnode (utility)</title>
<path fill="none" stroke="#000000" d="M227.4854,-145.0547C239.5196,-135.7354 252.5117,-123.0116 259.046,-108 265.4318,-93.3296 265.4318,-86.6704 259.046,-72 253.9839,-60.3707 245.0464,-50.1145 235.6809,-41.7504"/>
<polygon fill="#000000" stroke="#000000" points="237.7139,-38.8887 227.789,-35.181 233.2355,-44.2687 237.7139,-38.8887"/>
</g>
<!-- enhance_and_skullstrip_dwi_wf&#45;&gt;outputnode (utility) -->
<g id="edge3" class="edge">
<title>enhance_and_skullstrip_dwi_wf&#45;&gt;outputnode (utility)</title>
<path fill="none" stroke="#000000" d="M143.8325,-72.2022C153.22,-63.3088 164.7304,-52.4042 174.9595,-42.7135"/>
<polygon fill="#000000" stroke="#000000" points="177.6231,-45.0113 182.4756,-35.593 172.8089,-39.9297 177.6231,-45.0113"/>
</g>
</g>
</svg>
