<?xml version="1.0" encoding="UTF-8" standalone="no"?>
<svg
   xmlns:dc="http://purl.org/dc/elements/1.1/"
   xmlns:cc="http://creativecommons.org/ns#"
   xmlns:rdf="http://www.w3.org/1999/02/22-rdf-syntax-ns#"
   xmlns:svg="http://www.w3.org/2000/svg"
   xmlns="http://www.w3.org/2000/svg"
   id="SVGRoot"
   version="1.1"
   viewBox="0 0 16 16"
   height="16px"
   width="16px">
  <defs
     id="defs18" />
  <metadata
     id="metadata21">
    <rdf:RDF>
      <cc:Work
         rdf:about="">
        <dc:format>image/svg+xml</dc:format>
        <dc:type
           rdf:resource="http://purl.org/dc/dcmitype/StillImage" />
        <dc:title></dc:title>
      </cc:Work>
    </rdf:RDF>
  </metadata>
  <g
     id="layer1">
    <text
       id="text4528"
       y="12.619061"
       x="1.8243824"
       style="font-style:normal;font-weight:normal;font-size:14.6222868px;line-height:125%;font-family:Sans;letter-spacing:0px;word-spacing:0px;fill:#cccccc;fill-opacity:1;stroke:none;stroke-width:0.36555716px;stroke-linecap:butt;stroke-linejoin:miter;stroke-opacity:1"
       xml:space="preserve"><tspan
         style="fill:#cccccc;stroke-width:0.36555716px"
         y="12.619061"
         x="1.8243824"
         id="tspan4526">Q</tspan></text>
    <path
       transform="matrix(0.7740417,-0.63313462,0.58636492,0.81004702,0,0)"
       d="m 8.538655,12.217595 a 0.70290607,0.88058013 0 0 1 -0.3420173,-1.169243 0.70290607,0.88058013 0 0 1 0.933297,-0.428566 0.70290607,0.88058013 0 0 1 0.342172,1.169172 0.70290607,0.88058013 0 0 1 -0.9332402,0.42876"
       id="path40"
       style="fill:#ffffff;fill-opacity:1;stroke:#000000;stroke-width:0.15113032;stroke-linejoin:miter;stroke-miterlimit:4;stroke-dasharray:none;stroke-opacity:1" />
    <rect
       ry="0"
       rx="0"
       y="9.8479567"
       x="2.646452"
       height="3.1415291"
       width="2.7647638"
       id="rect46"
       style="fill:#ffffff;fill-opacity:1;stroke:#000000;stroke-width:0.15113032;stroke-linejoin:miter;stroke-miterlimit:4;stroke-dasharray:none;stroke-opacity:1"
       transform="matrix(-0.7740417,0.63313461,0.58636491,0.81004703,0,0)" />
    <rect
       transform="matrix(0.7740417,-0.63313462,0.58636492,0.81004702,0,0)"
       ry="0.23892985"
       rx="0.26637706"
       y="9.6813612"
       x="-3.935113"
       height="3.4747217"
       width="10.262429"
       id="rect34"
       style="fill:#ffffff;fill-opacity:1;stroke:#000000;stroke-width:0.15113032;stroke-linejoin:miter;stroke-miterlimit:4;stroke-dasharray:none;stroke-opacity:1" />
    <rect
       transform="matrix(0.7740417,-0.63313462,0.58636492,0.81004702,0,0)"
       ry="0.35757735"
       rx="0.35202935"
       y="9.2291708"
       x="3.8905747"
       height="4.3791013"
       width="1.8275558"
       id="rect42"
       style="fill:#ffffff;fill-opacity:1;stroke:#000000;stroke-width:0.15113032;stroke-linejoin:miter;stroke-miterlimit:4;stroke-dasharray:none;stroke-opacity:1" />
    <path
       id="rect38"
       d="M 9.7403,3.1373842 11.929893,1.3463869 15.223313,5.8961558 13.03372,7.687154 C 12.836452,7.848512 12.555438,7.809595 12.403645,7.599894 L 9.658215,3.8071594 C 9.506422,3.597462 9.543032,3.2987419 9.7403,3.1373842 Z"
       style="fill:#ffffff;fill-opacity:1;stroke:#000000;stroke-width:0.15099862;stroke-linejoin:miter;stroke-miterlimit:4;stroke-dasharray:none;stroke-opacity:1" />
    <rect
       transform="matrix(-0.7740417,0.63313461,0.58636491,0.81004703,0,0)"
       style="fill:#ffffff;fill-opacity:1;stroke:#000000;stroke-width:0.15113032;stroke-linejoin:miter;stroke-miterlimit:4;stroke-dasharray:none;stroke-opacity:1"
       id="rect44"
       width="2.2907667"
       height="3.4930429"
       x="4.3244076"
       y="9.6484013"
       rx="0.2237584"
       ry="0.29679272" />
    <path
       style="fill:#ffffff;fill-opacity:1;stroke:#000000;stroke-width:0.15099862;stroke-linejoin:miter;stroke-miterlimit:4;stroke-dasharray:none;stroke-opacity:1"
       d="m 10.2725,2.4073525 1.334817,-1.0918257 3.561411,4.9199917 -1.334817,1.0918255 c -0.120254,0.09836 -0.349219,-0.005 -0.513362,-0.231759 L 10.351717,2.9942258 C 10.187573,2.7674656 10.152243,2.5057182 10.2725,2.4073525 Z"
       id="path4524" />
  </g>
</svg>
